<svg width="31" height="31" viewBox="0 0 31 31" fill="none" xmlns="http://www.w3.org/2000/svg">
<g filter="url(#filter0_d_1_5077)">
<rect x="0.5" width="30" height="30" rx="15" fill="#F6851B"/>
<rect x="1" y="0.5" width="29" height="29" rx="14.5" stroke="white"/>
<path d="M22.1667 15.8333V11.6666H18" stroke="white" stroke-linecap="round" stroke-linejoin="round"/>
<path d="M22.1673 11.667L18.0007 15.8337C17.2652 16.5692 16.8975 16.9368 16.4462 16.9775C16.3715 16.9842 16.2965 16.9842 16.2218 16.9775C15.7705 16.9368 15.4028 16.5692 14.6673 15.8337C13.9318 15.0982 13.5641 14.7305 13.1128 14.6898C13.0382 14.6831 12.9631 14.6831 12.8885 14.6898C12.4372 14.7305 12.0695 15.0982 11.334 15.8337L8.83398 18.3337" stroke="white" stroke-linecap="round" stroke-linejoin="round"/>
</g>
<defs>
<filter id="filter0_d_1_5077" x="0.5" y="0" width="30" height="31" filterUnits="userSpaceOnUse" color-interpolation-filters="sRGB">
<feFlood flood-opacity="0" result="BackgroundImageFix"/>
<feColorMatrix in="SourceAlpha" type="matrix" values="0 0 0 0 0 0 0 0 0 0 0 0 0 0 0 0 0 0 127 0" result="hardAlpha"/>
<feOffset dy="1"/>
<feComposite in2="hardAlpha" operator="out"/>
<feColorMatrix type="matrix" values="0 0 0 0 1 0 0 0 0 1 0 0 0 0 1 0 0 0 1 0"/>
<feBlend mode="normal" in2="BackgroundImageFix" result="effect1_dropShadow_1_5077"/>
<feBlend mode="normal" in="SourceGraphic" in2="effect1_dropShadow_1_5077" result="shape"/>
</filter>
</defs>
</svg>
