<svg width="31" height="31" viewBox="0 0 31 31" fill="none" xmlns="http://www.w3.org/2000/svg">
<g filter="url(#filter0_d_1_5086)">
<rect x="0.5" width="30" height="30" rx="15" fill="#F6851B"/>
<rect x="1" y="0.5" width="29" height="29" rx="14.5" stroke="white"/>
<path d="M12.5 10.5C14.9853 10.5 17 9.82843 17 9C17 8.17157 14.9853 7.5 12.5 7.5C10.0147 7.5 8 8.17157 8 9C8 9.82843 10.0147 10.5 12.5 10.5Z" stroke="white"/>
<path d="M18.125 12.75C15.4327 12.75 13.25 14.9326 13.25 17.625C13.25 20.3173 15.4327 22.5 18.125 22.5C20.8173 22.5 23 20.3174 23 17.625C23 14.9326 20.8173 12.75 18.125 12.75Z" stroke="white" stroke-linecap="round" stroke-linejoin="round"/>
<path d="M18.125 20.25C18.2035 20.25 18.2765 20.2129 18.4225 20.1387L19.596 19.5423C20.1153 19.2784 20.375 19.1464 20.375 18.9375V16.3125M18.125 20.25C18.0465 20.25 17.9735 20.2129 17.8275 20.1387L16.6539 19.5423C16.1346 19.2784 15.875 19.1464 15.875 18.9375V16.3125M18.125 20.25V17.625M20.375 16.3125C20.375 16.1035 20.1153 15.9716 19.596 15.7077L18.4225 15.1113C18.2765 15.0371 18.2035 15 18.125 15C18.0465 15 17.9735 15.0371 17.8275 15.1113L16.6539 15.7077C16.1346 15.9716 15.875 16.1035 15.875 16.3125M20.375 16.3125C20.375 16.5214 20.1153 16.6534 19.596 16.9173L18.4225 17.5137C18.2765 17.5879 18.2035 17.625 18.125 17.625M15.875 16.3125C15.875 16.5214 16.1346 16.6534 16.6539 16.9173L17.8275 17.5137C17.9735 17.5879 18.0465 17.625 18.125 17.625" stroke="white" stroke-linejoin="round"/>
<path d="M8 9V12.0163V15.0325C8 15.5605 8.88375 16.2246 11.0974 16.5M8.08044 12.4108C8.98371 13.2072 10.5941 13.5451 12.3152 13.5451M16.9913 9.091V10.602" stroke="white" stroke-linecap="round" stroke-linejoin="round"/>
</g>
<defs>
<filter id="filter0_d_1_5086" x="0.5" y="0" width="30" height="31" filterUnits="userSpaceOnUse" color-interpolation-filters="sRGB">
<feFlood flood-opacity="0" result="BackgroundImageFix"/>
<feColorMatrix in="SourceAlpha" type="matrix" values="0 0 0 0 0 0 0 0 0 0 0 0 0 0 0 0 0 0 127 0" result="hardAlpha"/>
<feOffset dy="1"/>
<feComposite in2="hardAlpha" operator="out"/>
<feColorMatrix type="matrix" values="0 0 0 0 1 0 0 0 0 1 0 0 0 0 1 0 0 0 1 0"/>
<feBlend mode="normal" in2="BackgroundImageFix" result="effect1_dropShadow_1_5086"/>
<feBlend mode="normal" in="SourceGraphic" in2="effect1_dropShadow_1_5086" result="shape"/>
</filter>
</defs>
</svg>
